# AST/ASF file generated using VICON BodyLanguage
# -----------------------------------------------
:version 1.10
:name VICON
:units
  mass 1.0
  length 0.45
  angle deg
:documentation
   .ast/.asf automatically generated from VICON data using
   VICON BodyBuilder and BodyLanguage model FoxedUp or BRILLIANT.MOD
:root
   order TX TY TZ RX RY RZ
   axis XYZ
   position 0 0 0  
   orientation 0 0 0 
:bonedata
  begin
     id 1 
     name lhipjoint
     direction 0.682418 -0.694059 0.22932 
     length 2.25561 
     axis 0 0 0  XYZ
  end
  begin
     id 2 
     name lfemur
     direction 0.34202 -0.939693 0  
     length 6.96448  
     axis 0 0 20  XYZ
    dof rx ry rz
    limits (-160.0 20.0)
           (-70.0 70.0)
           (-60.0 70.0)
  end
  begin
     id 3 
     name ltibia
     direction 0.34202 -0.939693 0   
     length 6.88553   
     axis 0 0 20   XYZ
    dof rx
    limits (-10.0 170.0)
  end
  begin
     id 4 
     name lfoot
     direction 0.0723587 -0.198804 0.977364   
     length 1.88518   
     axis -90 7.62852e-016 20   XYZ
    dof rx rz
    limits (-45.0 90.0)
           (-70.0 20.0)
  end
  begin
     id 5 
     name ltoes
     direction 1.53558e-011 -4.21962e-011 1   
     length 0.952124   
     axis -90 7.62852e-016 20   XYZ
    dof rx
    limits (-90.0 20.0)
  end
  begin
     id 6 
     name rhipjoint
     direction -0.657603 -0.71533 0.236348   
     length 2.18854  
     axis 0 0 0  XYZ 
  end
  begin
     id 7 
     name rfemur
     direction -0.34202 -0.939693 0   
     length 6.86686   
     axis 0 0 -20   XYZ
    dof rx ry rz
    limits (-160.0 20.0)
           (-70.0 70.0)
           (-70.0 60.0)
  end
  begin
     id 8 
     name rtibia
     direction -0.34202 -0.939693 0   
     length 6.59503   
     axis 0 0 -20   XYZ
    dof rx
    limits (-10.0 170.0)
 end
 begin
     id 9 
     name rfoot
     direction -0.101977 -0.280179 0.954516   
     length 1.93723  
     axis -90 -7.62852e-016 -20   XYZ
    dof rx rz
    limits (-45.0 90.0)
           (-20.0 70.0)
  end
  begin
     id 10 
     name rtoes
     direction -1.53564e-011 -4.21897e-011 1   
     length 0.970315   
     axis -90 -7.62852e-016 -20   XYZ
    dof rx
    limits (-90.0 20.0)
  end
  begin
     id 11 
     name lowerback
     direction -0.0339559 0.999421 -0.00235966   
     length 1.88543   
     axis 0 0 0   XYZ
    dof rx ry rz
    limits (-20.0 45.0)
           (-30.0 30.0)
           (-30.0 30.0)
  end
  begin
     id 12 
     name upperback
     direction 0.00401003 0.999739 0.0224689   
     length 1.8856   
     axis 0 0 0   XYZ
    dof rx ry rz
    limits (-20.0 45.0)
           (-30.0 30.0)
           (-30.0 30.0)
  end
  begin
     id 13 
     name thorax
     direction 0.0198619 0.999546 0.0226536   
     length 1.88352   
     axis 0 0 0   XYZ
    dof rx ry rz
    limits (-20.0 45.0)
           (-30.0 30.0)
           (-30.0 30.0)
  end
  begin
     id 14 
     name lowerneck
     direction -0.0461848 0.998632 0.0245198   
     length 1.34895   
     axis 0 0 0   XYZ
    dof rx ry rz
    limits (-20.0 45.0)
           (-30.0 30.0)
           (-30.0 30.0)
  end
  begin
     id 15 
     name upperneck
     direction -0.0180627 0.994724 -0.100984   
     length 1.35214   
     axis 0 0 0   XYZ
    dof rx ry rz
    limits (-20.0 45.0)
           (-30.0 30.0)
           (-30.0 30.0)
  end
  begin
     id 16
     name head
     direction -0.00374772 0.999293 -0.037403  
     length 1.3568  
     axis 0 0 0   XYZ
    dof rx ry rz
    limits (-20.0 45.0)
           (-30.0 30.0)
           (-30.0 30.0)
  end
  begin
     id 17 
     name lclavicle
     direction 0.971773 0.191119 0.138311  
     length 2.84954  
     axis 0 0 0   XYZ
    dof ry rz
    limits (-20.0 10.0)
           (0.0 20.0)
  end
  begin
     id 18 
     name lhumerus
     direction 1 -4.4897e-011 -2.43761e-027   
     length 4.40919   
     axis 180 -30 -90   XYZ
    dof rx ry rz
    limits (-60.0 90.0)
           (-90.0 90.0)
           (-90.0 90.0)
  end
  begin
     id 19
     name lradius
     direction 1 -4.4896e-011 -9.1621e-027   
     length 3.03857   
     axis 180 -30 -90   XYZ
    dof rx
    limits (-10.0 170.0)
  end
  begin
     id 20
     name lwrist
     direction 1 -4.4896e-011 -1.41363e-026   
     length 1.51928   
     axis 1.07133e-014 90 90   XYZ
    dof ry
    limits (-180.0 0.0)
 end
  begin
     id 21 
     name lhand
     direction 1 -4.48978e-011 -2.82725e-026   
     length 0.523208   
     axis 1.80403e-014 90 90   XYZ
    dof rx rz
    limits (-90.0 90.0)
           (-45.0 45.0)
  end
  begin
     id 22 
     name lfingers
     direction 1 -4.48977e-011 -5.6545e-026   
     length 0.421824   
     axis 3.60806e-014 90 90   XYZ
    dof rx
    limits (0.0 90.0)
  end
  begin
     id 23
     name lthumb
     direction 0.707107 -6.34962e-011 0.707107   
     length 0.605657   
     axis -90 45 2.85299e-015   XYZ
    dof rx rz
    limits (-45.0 45.0)
           (-45.0 45.0)
  end
  begin
     id 24 
     name rclavicle
     direction -0.957247 0.24311 0.156766   
     length 3.12406  
     axis 0 0 0   XYZ 
    dof ry rz
    limits (-10.0 20.0)
           (-20.0 0.0)
  end
  begin
     id 25 
     name rhumerus
     direction -1 -4.48964e-011 -1.70632e-027  
     length 4.61969   
     axis 180 30 90   XYZ
    dof rx ry rz
    limits (-90.0 60.0)
           (-90.0 90.0)
           (-90.0 90.0)
  end
  begin
     id 26 
     name rradius
     direction -1 -4.48966e-011 -6.60395e-027   
     length 3.09382   
     axis 180 30 90   XYZ
    dof rx
    limits (-10.0 170.0)
  end
  begin
     id 27 
     name rwrist
     direction -1 -4.48963e-011 -1.41363e-026   
     length 1.54691   
     axis 1.07133e-014 -90 -90   XYZ
    dof ry
    limits (-180.0 0.0)
  end
  begin
     id 28
     name rhand
     direction -1 -4.49013e-011 -2.82725e-026   
     length 0.500896   
     axis 1.80403e-014 -90 -90   XYZ
    dof rx rz
    limits (-90.0 90.0)
           (-45.0 45.0)
  end
  begin
     id 29
     name rfingers
     direction -1 -4.48902e-011 -5.6545e-026   
     length 0.403835   
     axis 3.60806e-014 -90 -90   XYZ
    dof rx
    limits (0.0 90.0)
  end
  begin
     id 30
     name rthumb
     direction -0.707107 -6.34953e-011 0.707107   
     length 0.579829   
     axis -90 -45 -2.85299e-015   XYZ
    dof rx rz
    limits (-45.0 45.0)
           (-45.0 45.0)
  end
:hierarchy
  begin
    root lhipjoint rhipjoint lowerback
    lhipjoint lfemur
    lfemur ltibia
    ltibia lfoot
    lfoot ltoes
    rhipjoint rfemur
    rfemur rtibia
    rtibia rfoot
    rfoot rtoes
    lowerback upperback
    upperback thorax
    thorax lowerneck lclavicle rclavicle
    lowerneck upperneck
    upperneck head
    lclavicle lhumerus
    lhumerus lradius
    lradius lwrist
    lwrist lhand lthumb
    lhand lfingers
    rclavicle rhumerus
    rhumerus rradius
    rradius rwrist
    rwrist rhand rthumb
    rhand rfingers
  end

#!OML:ASF E:\madness\Project 1\Capture day 1\Session 1\Female1.ASF
:FULLY-SPECIFIED
:DEGREES
1
root 2.43988 16.2795 -0.585791 -118.224 -88.263 125.785
lowerback -5.2786 0.209695 -2.69587
upperback -5.81216 0.183514 0.104095
thorax -3.05134 0.118355 1.62579
lowerneck -3.60229 -0.712203 -0.772579
upperneck 20.9877 -0.754169 -3.60864
head 6.97802 -0.945453 -1.11694
rclavicle -2.33572e-015 1.09332e-015
rhumerus -46.353 -9.75583 -79.6259
rradius 29.6525
rwrist 9.89195
rhand -10.9702 -49.2726
rfingers 7.12502
rthumb 15.0492 -78.7057
lclavicle -2.33572e-015 1.09332e-015
lhumerus -51.3222 16.2972 77.0359
lradius 35.8317
lwrist -16.1845
lhand -22.4034 -14.8537
lfingers 7.12502
lthumb 4.01925 15.0881
rfemur -9.37929 18.8668 16.0068
rtibia 18.2528
rfoot -17.3115 -17.4431
rtoes 12.4081
lfemur -9.78924 -22.7863 -18.6499
ltibia 20.6178
lfoot -11.6832 29.6857
ltoes 19.4106
2
root 2.43489 16.2808 -0.589551 -120.162 -88.3006 127.708
lowerback -5.39079 0.216142 -2.6622
upperback -5.73788 0.198394 0.118178
thorax -2.91155 0.123352 1.62215
lowerneck -3.6913 -0.719315 -0.775139
upperneck 20.9473 -0.762978 -3.57961
head 6.98068 -0.94534 -1.10769
rclavicle 6.95746e-015 -9.93923e-017
rhumerus -46.3136 -9.82994 -79.5949
rradius 29.7185
rwrist 10.1631
rhand -11.7749 -48.6827
rfingers 7.12502
rthumb 14.2739 -78.1721
lclavicle 6.95746e-015 -9.93923e-017
lhumerus -51.1529 16.2167 77.0835
lradius 35.6442
lwrist -16.1262
lhand -22.5435 -14.9225
lfingers 7.12502
lthumb 3.8839 15.0219
rfemur -9.30613 18.9189 16.1101
rtibia 18.1547
rfoot -17.285 -17.5149
rtoes 12.2782
lfemur -9.78841 -22.8593 -18.5636
ltibia 20.6743
lfoot -11.8566 29.7088
ltoes 20.1093
3
root 2.43278 16.2808 -0.589802 -121.409 -88.3751 128.898
lowerback -5.35975 0.240007 -2.57735
upperback -5.7191 0.228617 0.125963
thorax -2.90978 0.136033 1.58333
lowerneck -3.73114 -0.741312 -0.773002
upperneck 21.0147 -0.795003 -3.56832
head 7.00919 -0.961577 -1.1079
rclavicle -5.2181e-016 2.23633e-015
rhumerus -46.369 -9.85135 -79.5899
rradius 29.7259
rwrist 10.1394
rhand -11.7047 -48.5814
rfingers 7.12502
rthumb 14.3415 -78.0661
lclavicle -5.2181e-016 2.23633e-015
lhumerus -51.1478 16.1993 77.0779
lradius 35.6172
lwrist -16.279
lhand -22.5746 -15.0048
lfingers 7.12502
lthumb 3.85395 14.9401
rfemur -9.20644 18.8661 16.2396
rtibia 18.1171
rfoot -17.1686 -17.552
rtoes 11.6081
lfemur -9.73633 -22.8293 -18.4907
ltibia 20.7293
lfoot -12.1588 29.5989
ltoes 20.7528
4
root 2.43443 16.279 -0.586489 -121.765 -88.3699 129.225
lowerback -5.29276 0.267529 -2.53404
upperback -5.72251 0.262377 0.111756
thorax -2.95168 0.151903 1.54504
lowerneck -3.79041 -0.764453 -0.763403
upperneck 21.1084 -0.820042 -3.60653
head 7.04952 -0.979028 -1.1255
rclavicle -1.82633e-015 2.38542e-015
rhumerus -46.3906 -9.92084 -79.5421
rradius 29.6345
rwrist 10.1971
rhand -10.6248 -49.019
rfingers 7.12502
rthumb 15.3819 -78.4268
lclavicle -1.82633e-015 2.38542e-015
lhumerus -51.1493 16.147 77.1177
lradius 35.6753
lwrist -16.2632
lhand -22.4565 -14.8366
lfingers 7.12502
lthumb 3.96798 15.1062
rfemur -9.15579 18.6286 16.2408
rtibia 18.0874
rfoot -16.956 -17.324
rtoes 11.3514
lfemur -9.69777 -22.6567 -18.5385
ltibia 20.7625
lfoot -12.0401 29.5298
ltoes 20.2794
5
root 2.4341 16.278 -0.584559 -122.02 -88.3414 129.469
lowerback -5.31395 0.259066 -2.51814
upperback -5.68994 0.252836 0.105016
thorax -2.90517 0.146068 1.52904
lowerneck -3.82954 -0.750112 -0.74356
upperneck 21.0803 -0.793644 -3.63865
head 7.04741 -0.96644 -1.13726
rclavicle 1.77664e-015 -3.57812e-015
rhumerus -46.3004 -9.90221 -79.556
rradius 29.5724
rwrist 10.1682
rhand -10.136 -49.368
rfingers 7.12502
rthumb 15.8526 -78.739
lclavicle 1.77664e-015 -3.57812e-015
lhumerus -51.1498 16.1924 77.1117
lradius 35.7466
lwrist -16.1307
lhand -22.3293 -14.6871
lfingers 7.12502
lthumb 4.09079 15.2534
rfemur -9.12376 18.4477 16.2129
rtibia 18.0459
rfoot -16.8804 -17.1195
rtoes 11.6414
lfemur -9.69306 -22.5544 -18.59
ltibia 20.7995
lfoot -11.8304 29.5191
ltoes 19.5791
6
root 2.43082 16.2792 -0.585798 -122.207 -88.3536 129.638
lowerback -5.3859 0.225503 -2.52313
upperback -5.64618 0.212576 0.124076
thorax -2.81769 0.125539 1.55066
lowerneck -3.84417 -0.716083 -0.717091
upperneck 21.0242 -0.745984 -3.64655
head 7.0323 -0.940247 -1.14018
rclavicle -2.23633e-016 -6.36111e-015
rhumerus -46.2398 -9.72839 -79.667
rradius 29.5961
rwrist 9.87113
rhand -10.4636 -49.3023
rfingers 7.12502
rthumb 15.5372 -78.6981
lclavicle -2.23633e-016 -6.36111e-015
lhumerus -51.2014 16.3406 77.0459
lradius 35.7912
lwrist -16.078
lhand -22.324 -14.9016
lfingers 7.12502
lthumb 4.09588 15.0387
rfemur -9.09498 18.5203 16.2383
rtibia 18.0364
rfoot -17.0322 -17.1752
rtoes 11.983
lfemur -9.67311 -22.5275 -18.57
ltibia 20.8019
lfoot -12.0325 29.41
ltoes 19.7692
7
root 2.42689 16.2801 -0.590232 -120.997 -88.4469 128.393
lowerback -5.36805 0.206174 -2.53204
upperback -5.66334 0.186394 0.151206
thorax -2.84459 0.113621 1.58286
lowerneck -3.80836 -0.704885 -0.704457
upperneck 21.029 -0.733735 -3.646
head 7.02759 -0.933643 -1.14109
rclavicle 6.28035e-015 -8.94531e-016
rhumerus -46.3585 -9.60683 -79.7326
rradius 29.627
rwrist 9.47577
rhand -11.067 -49.034
rfingers 7.12502
rthumb 14.956 -78.474
lclavicle 6.28035e-015 -8.94531e-016
lhumerus -51.278 16.3377 77.0041
lradius 35.774
lwrist -16.0949
lhand -22.3312 -15.1421
lfingers 7.12502
lthumb 4.08899 14.7984
rfemur -9.03154 18.794 16.3464
rtibia 18.0546
rfoot -17.1293 -17.5101
rtoes 11.8733
lfemur -9.63667 -22.4521 -18.4802
ltibia 20.7738
lfoot -12.2879 29.1958
ltoes 20.0273
